<?xml version="1.0" encoding="UTF-8"?>
<svg width="68px" height="68px" viewBox="0 0 68 68" version="1.1" xmlns="http://www.w3.org/2000/svg" xmlns:xlink="http://www.w3.org/1999/xlink">
    <!-- Generator: sketchtool 64 (101010) - https://sketch.com -->
    <title>7C50D71E-ECB4-4F2D-9B96-3E29DFEADEB2</title>
    <desc>Created with sketchtool.</desc>
    <g id="Symbols" stroke="none" stroke-width="1" fill="none" fill-rule="evenodd">
        <g id="jo_logo_blue" fill="#0E4BFF">
            <g id="02">
                <path d="M33.999864,51 L33.999864,34 L16.999864,34 C16.999864,43.3886839 24.6106701,51 33.999864,51" id="Fill-1"></path>
                <path d="M51.000034,16.99983 C51.000034,7.61124 43.388794,-3.55271368e-15 34.000204,-3.55271368e-15 L16.999864,-3.55271368e-15 L16.999864,16.99983 L34.000204,16.99983 L34.000204,33.99966 L51.000034,33.99966 L51.000034,51 L67.999864,51 L67.999864,33.99966 C67.999864,24.61107 60.388624,16.99983 51.000034,16.99983" id="Fill-4"></path>
                <path d="M25.9387258,8.93886177 L25.9387258,-8.06127423 L8.93872577,-8.93886177 L8.93872577,8.93886177 C8.93872577,18.3275457 16.5495319,25.9388618 25.9387258,25.9388618 L25.9387258,8.93886177 Z" id="Fill-1-Copy-2" transform="translate(17.438726, 8.500000) rotate(-270.000000) translate(-17.438726, -8.500000) "></path>
                <path d="M76.2453064,59.7546936 L76.2449664,42.7451364 L59.2449664,42.7451364 L42.7451364,42.7451364 C42.7451364,52.1338203 50.3559425,59.7546936 59.7451364,59.7546936 L76.2453064,59.7546936 Z" id="Fill-1-Copy" transform="translate(59.495221, 51.249915) rotate(-90.000000) translate(-59.495221, -51.249915) "></path>
            </g>
        </g>
    </g>
</svg>